<?xml version="1.0" encoding="utf-8"?>
<!-- Generator: Adobe Illustrator 23.0.1, SVG Export Plug-In . SVG Version: 6.00 Build 0)  -->
<svg version="1.1" id="Layer_1" xmlns="http://www.w3.org/2000/svg" xmlns:xlink="http://www.w3.org/1999/xlink" x="0px" y="0px"
	 viewBox="0 0 1188 2048" style="enable-background:new 0 0 1188 2048;" xml:space="preserve">
<style type="text/css">
	.st0{fill:#C60000;}
</style>
<path class="st0" d="M1188,1450c0,26.7-9.3,49.3-28,68l-136,136c-18.7,18.7-41.3,28-68,28s-49.3-9.3-68-28l-294-294l-294,294
	c-18.7,18.7-41.3,28-68,28s-49.3-9.3-68-28L28,1518c-18.7-18.7-28-41.3-28-68s9.3-49.3,28-68l294-294L28,794
	C9.3,775.3,0,752.7,0,726s9.3-49.3,28-68l136-136c18.7-18.7,41.3-28,68-28s49.3,9.3,68,28l294,294l294-294c18.7-18.7,41.3-28,68-28
	s49.3,9.3,68,28l136,136c18.7,18.7,28,41.3,28,68s-9.3,49.3-28,68l-294,294l294,294C1178.7,1400.7,1188,1423.3,1188,1450z"/>
</svg>
