<?xml version="1.0" encoding="utf-8"?>
<!-- Generator: Adobe Illustrator 23.0.1, SVG Export Plug-In . SVG Version: 6.00 Build 0)  -->
<svg version="1.1" id="Layer_1" xmlns="http://www.w3.org/2000/svg" xmlns:xlink="http://www.w3.org/1999/xlink" x="0px" y="0px"
	 viewBox="0 0 24 24" style="enable-background:new 0 0 24 24;" xml:space="preserve">
<style type="text/css">
	.st0{display:none;fill:#515151;}
	.st1{fill:none;stroke:#000000;stroke-width:2;stroke-linecap:round;stroke-linejoin:round;}
	.st2{fill:none;stroke:#000000;stroke-width:1.5;stroke-linecap:round;stroke-linejoin:round;}
	.st3{display:none;}
	.st4{display:inline;fill:none;stroke:#000000;stroke-width:1.8;stroke-miterlimit:10;}
	.st5{display:inline;}
	.st6{fill:none;stroke:#000000;stroke-width:1.8;stroke-miterlimit:10;}
	.st7{display:inline;fill:none;stroke:#000000;stroke-width:1.8;stroke-linecap:round;stroke-miterlimit:10;}
	.st8{display:inline;fill:none;stroke:#000000;stroke-width:1.6;stroke-miterlimit:10;}
	.st9{display:inline;fill:none;stroke:#000000;stroke-width:1.6;stroke-linecap:round;stroke-miterlimit:10;}
</style>
<rect y="0" class="st0" width="24" height="24"/>
<g>
	<path class="st1" d="M12,2.7l5.7,5.7c3.1,3.1,3.1,8.2,0,11.3c-3.1,3.1-8.2,3.1-11.3,0s-3.1-8.2,0-11.3l0,0L12,2.7z"/>
	<path class="st2" d="M15.1,17.4c-1.8,1.8-4.7,1.8-6.5,0s-1.8-4.7,0-6.5"/>
</g>
<g class="st3">
	<path class="st4" d="M17.8,22.8h-11C6.4,22.8,6,22.4,6,22V8.6h11.7c0.4,0,0.7,0.3,0.7,0.7V22C18.5,22.4,18.2,22.8,17.8,22.8z"/>
	<path class="st5" d="M15,20.6L15,20.6c-0.7,0-1.2-0.5-1.2-1.2V12c0-0.7,0.5-1.2,1.2-1.2h0c0.7,0,1.2,0.5,1.2,1.2v7.5
		C16.3,20.1,15.7,20.6,15,20.6z"/>
	<path class="st4" d="M10.6,8.6H6.8C6.4,8.6,6,8.3,6,7.9V4.1c0-0.4,0.3-0.7,0.7-0.7h3.9c0.4,0,0.7,0.3,0.7,0.7v3.8
		C11.4,8.3,11,8.6,10.6,8.6z"/>
	<path class="st5" d="M10.3,3.2H7.1C7.1,3.2,7,3.1,7,3V0.7c0-0.1,0.1-0.1,0.1-0.1h3.1c0.1,0,0.1,0.1,0.1,0.1V3
		C10.4,3.1,10.3,3.2,10.3,3.2z"/>
</g>
<g class="st3">
	<g class="st5">
		<path class="st6" d="M17.5,17.9h-11c-1.2,0-2.1-1-2.1-2.1V4.6c0-1.1,0.9-2,2-2h11.2c1.2,0,2.1,1,2.1,2.1v11.1
			C19.6,17,18.7,17.9,17.5,17.9z"/>
	</g>
	<g class="st5">
		<path class="st6" d="M16.3,21.4H7.7c-1,0-1.8-0.8-1.8-1.8v-0.1c0-0.9,0.7-1.6,1.6-1.6h8.6c1,0,1.8,0.8,1.8,1.8v0
			C18,20.6,17.2,21.4,16.3,21.4z"/>
	</g>
	<line class="st7" x1="7.1" y1="9.3" x2="11.3" y2="13.5"/>
	<line class="st7" x1="7.1" y1="5.3" x2="11.3" y2="9.5"/>
</g>
<g class="st3">
	<ellipse class="st8" cx="12" cy="20.1" rx="7.6" ry="1.7"/>
	<ellipse class="st8" cx="12" cy="3.8" rx="7.6" ry="1.6"/>
	<line class="st8" x1="4.4" y1="20.4" x2="4.4" y2="3.6"/>
	<line class="st8" x1="19.6" y1="20.4" x2="19.6" y2="3.6"/>
	<line class="st9" x1="7.5" y1="7.8" x2="7.5" y2="16.2"/>
</g>
</svg>
