<svg id="Layer_1" data-name="Layer 1" xmlns="http://www.w3.org/2000/svg" width="23.92" height="23.92" viewBox="0 0 23.92 23.92"><title>protection</title><g id="Layer_2" data-name="Layer 2"><path d="M12,.06A12,12,0,1,0,24,12,12,12,0,0,0,12,.06Zm0,22.79A10.83,10.83,0,1,1,22.83,12,10.84,10.84,0,0,1,12,22.85Z" transform="translate(-0.04 -0.06)"/><path d="M8.68,11.2H8.41v-.8a2.18,2.18,0,0,0,0-.44l.35-.2a.8.8,0,0,0-.8-1.39l-.35.21a2.52,2.52,0,0,0-.76-.44V7.73a.8.8,0,0,0-1.6,0v.41a2.4,2.4,0,0,0-.76.44L4.1,8.37A.81.81,0,0,0,3,8.66a.8.8,0,0,0,.29,1.09h0l.35.2a2.18,2.18,0,0,0,0,.44v.8H3.34a.8.8,0,0,0,0,1.6h.27v.8a2.18,2.18,0,0,0,0,.44l-.36.2A.81.81,0,0,0,3,15.33a.8.8,0,0,0,1.1.3h0l.36-.21a2.4,2.4,0,0,0,.76.44v.41a.8.8,0,0,0,1.6,0v-.41a2.47,2.47,0,0,0,.75-.44l.36.21A.8.8,0,0,0,9,15.34a.79.79,0,0,0-.28-1.09h0L8.37,14a3.27,3.27,0,0,0,0-.44v-.8h.27a.8.8,0,0,0,0-1.6ZM6.81,13.6a.8.8,0,0,1-1.6,0V10.4a.8.8,0,0,1,1.6,0Z" transform="translate(-0.04 -0.06)"/><path d="M11.58,6.29l.35.2a2.6,2.6,0,0,0,0,.88l-.35.2a.8.8,0,0,0-.3,1.09.79.79,0,0,0,1.09.3h0l.36-.2a2.25,2.25,0,0,0,.75.43V9.6a.8.8,0,1,0,1.6,0V9.19a2.2,2.2,0,0,0,.76-.43l.36.2A.8.8,0,0,0,17,7.58h0l-.36-.2a2.17,2.17,0,0,0,0-.88l.36-.2a.81.81,0,0,0,.3-1.09.79.79,0,0,0-1.09-.3h0l-.36.21a2.08,2.08,0,0,0-.76-.44V4.26a.8.8,0,0,0-1.6,0v.41a2.12,2.12,0,0,0-.75.44l-.36-.21a.8.8,0,0,0-1.09.29.79.79,0,0,0,.28,1.09Zm1.91.64a.8.8,0,1,1,.8.8.8.8,0,0,1-.8-.8Z" transform="translate(-0.04 -0.06)"/><path d="M19.82,13.75a.8.8,0,0,0-1.09-.29l-.35.21a2.32,2.32,0,0,0-.76-.44v-.41a.8.8,0,0,0-1.6,0v.41a2.87,2.87,0,0,0-.4.18l-.7.4-.13-.23a.81.81,0,0,0-1.1-.29.82.82,0,0,0-.29,1.09l.14.23-.69.4a2.31,2.31,0,0,0-.36.25l-.36-.2a.8.8,0,0,0-1.09.3.82.82,0,0,0,.29,1.09l.36.2a2.17,2.17,0,0,0,0,.88l-.35.2a.8.8,0,1,0,.79,1.39h0l.35-.21a2.4,2.4,0,0,0,.76.44v.41a.8.8,0,0,0,1.6,0v-.41a2.87,2.87,0,0,0,.4-.18l.69-.4.14.23a.8.8,0,1,0,1.38-.8L17.33,18l.69-.4a2.36,2.36,0,0,0,.36-.26l.35.21a.81.81,0,0,0,1.1-.29.8.8,0,0,0-.29-1.09h0l-.35-.2a2.6,2.6,0,0,0,0-.88l.35-.21A.8.8,0,0,0,19.82,13.75Zm-2.6,2.43-2.77,1.6a.81.81,0,0,1-1.1-.29.79.79,0,0,1,.3-1.09l2.77-1.6a.8.8,0,0,1,1.17.9A.78.78,0,0,1,17.22,16.18Z" transform="translate(-0.04 -0.06)"/><path d="M12.05,12a.63.63,0,0,0-.62-.63h0a.63.63,0,1,0,.62.63Z" transform="translate(-0.04 -0.06)"/><path d="M9.29,5.09h0a.63.63,0,1,0,.63.63A.63.63,0,0,0,9.29,5.09Z" transform="translate(-0.04 -0.06)"/><path d="M8.4,17.86h0a.63.63,0,1,0,.63.62A.63.63,0,0,0,8.4,17.86Z" transform="translate(-0.04 -0.06)"/><path d="M17.7,11a.63.63,0,1,0,.62-.63h0A.63.63,0,0,0,17.7,11Z" transform="translate(-0.04 -0.06)"/><rect x="2.17" y="10.41" width="20.21" height="2.82" transform="translate(13.99 -5.19) rotate(52)" style="stroke:#fff;stroke-miterlimit:10"/></g></svg>