<?xml version="1.0" encoding="utf-8"?>
<!-- Generator: Adobe Illustrator 23.0.1, SVG Export Plug-In . SVG Version: 6.00 Build 0)  -->
<svg version="1.1" id="Layer_1" xmlns="http://www.w3.org/2000/svg" xmlns:xlink="http://www.w3.org/1999/xlink" x="0px" y="0px"
	 viewBox="0 0 24 24" style="enable-background:new 0 0 24 24;" xml:space="preserve">
<style type="text/css">
	.st0{display:none;fill:#515151;}
	.st1{display:none;fill:none;stroke:#000000;stroke-width:2;stroke-linecap:round;stroke-linejoin:round;}
	.st2{fill:none;stroke:#000000;stroke-width:1.8;stroke-miterlimit:10;}
</style>
<rect y="0" class="st0" width="24" height="24"/>
<path class="st1" d="M12,2.7l5.7,5.7c3.1,3.1,3.1,8.2,0,11.3c-3.1,3.1-8.2,3.1-11.3,0s-3.1-8.2,0-11.3l0,0L12,2.7z"/>
<g>
	<path class="st2" d="M17.8,22.8h-11C6.4,22.8,6,22.4,6,22V8.6h11.7c0.4,0,0.7,0.3,0.7,0.7V22C18.5,22.4,18.2,22.8,17.8,22.8z"/>
	<path class="st2" d="M10.6,8.6H6.8C6.4,8.6,6,8.3,6,7.9V4.1c0-0.4,0.3-0.7,0.7-0.7h3.9c0.4,0,0.7,0.3,0.7,0.7v3.8
		C11.4,8.3,11,8.6,10.6,8.6z"/>
	<path d="M10.3,3.2H7.1C7.1,3.2,7,3.1,7,3V0.7c0-0.1,0.1-0.1,0.1-0.1h3.1c0.1,0,0.1,0.1,0.1,0.1V3C10.4,3.1,10.3,3.2,10.3,3.2z"/>
</g>
<rect x="13.8" y="10.7" width="2.4" height="9.9"/>
</svg>
